<svg width="1920" height="1080" viewBox="0 0 1920 1080" fill="none" xmlns="http://www.w3.org/2000/svg">
<g opacity="0.02">
<line x1="1918" y1="0.5" x2="-1.99854" y2="0.5" stroke="black"/>
<line x1="1918" y1="29.5" x2="-1.99854" y2="29.5" stroke="black"/>
<line x1="1918" y1="58.5" x2="-1.99854" y2="58.5" stroke="black"/>
<line x1="1918" y1="87.5" x2="-1.99854" y2="87.5" stroke="black"/>
<line x1="1918" y1="116.5" x2="-1.99854" y2="116.5" stroke="black"/>
<line x1="1918" y1="145.5" x2="-1.99854" y2="145.5" stroke="black"/>
<line x1="1918" y1="174.5" x2="-1.99854" y2="174.5" stroke="black"/>
<line x1="1918" y1="203.5" x2="-1.99854" y2="203.5" stroke="black"/>
<line x1="1918" y1="232.5" x2="-1.99854" y2="232.5" stroke="black"/>
<line x1="1918" y1="261.5" x2="-1.99854" y2="261.5" stroke="black"/>
<line x1="1918" y1="290.5" x2="-1.99854" y2="290.5" stroke="black"/>
<line x1="1918" y1="319.5" x2="-1.99854" y2="319.5" stroke="black"/>
<line x1="1918" y1="348.5" x2="-1.99854" y2="348.5" stroke="black"/>
<line x1="1918" y1="377.5" x2="-1.99854" y2="377.5" stroke="black"/>
<line x1="1918" y1="406.5" x2="-1.99854" y2="406.5" stroke="black"/>
<line x1="1918" y1="435.5" x2="-1.99854" y2="435.5" stroke="black"/>
<line x1="1918" y1="464.5" x2="-1.99854" y2="464.5" stroke="black"/>
<line x1="1918" y1="493.5" x2="-1.99854" y2="493.5" stroke="black"/>
<line x1="1918" y1="522.5" x2="-1.99854" y2="522.5" stroke="black"/>
<line x1="1918" y1="551.5" x2="-1.99854" y2="551.5" stroke="black"/>
<line x1="1918" y1="580.5" x2="-1.99854" y2="580.5" stroke="black"/>
<line x1="1918" y1="609.5" x2="-1.99854" y2="609.5" stroke="black"/>
<line x1="1918" y1="638.5" x2="-1.99854" y2="638.5" stroke="black"/>
<line x1="1918" y1="667.5" x2="-1.99854" y2="667.5" stroke="black"/>
<line x1="1918" y1="696.5" x2="-1.99854" y2="696.5" stroke="black"/>
<line x1="1918" y1="725.5" x2="-1.99854" y2="725.5" stroke="black"/>
<line x1="1918" y1="754.5" x2="-1.99854" y2="754.5" stroke="black"/>
<line x1="1918" y1="783.5" x2="-1.99854" y2="783.5" stroke="black"/>
<line x1="1918" y1="812.5" x2="-1.99854" y2="812.5" stroke="black"/>
<line x1="1918" y1="841.5" x2="-1.99854" y2="841.5" stroke="black"/>
<line x1="1918" y1="870.5" x2="-1.99854" y2="870.5" stroke="black"/>
<line x1="1918" y1="899.5" x2="-1.99854" y2="899.5" stroke="black"/>
<line x1="1918" y1="928.5" x2="-1.99854" y2="928.5" stroke="black"/>
<line x1="1918" y1="957.5" x2="-1.99854" y2="957.5" stroke="black"/>
<line x1="1918" y1="986.5" x2="-1.99854" y2="986.5" stroke="black"/>
<line x1="1918" y1="1015.5" x2="-1.99854" y2="1015.5" stroke="black"/>
<line x1="1918" y1="1044.5" x2="-1.99854" y2="1044.5" stroke="black"/>
<line x1="1918" y1="1073.5" x2="-1.99854" y2="1073.5" stroke="black"/>
<line x1="1.49683" y1="1080" x2="1.49683" stroke="black"/>
<line x1="30.4968" y1="1080" x2="30.4968" stroke="black"/>
<line x1="59.4968" y1="1080" x2="59.4968" stroke="black"/>
<line x1="88.4968" y1="1080" x2="88.4968" stroke="black"/>
<line x1="117.497" y1="1080" x2="117.497" stroke="black"/>
<line x1="146.497" y1="1080" x2="146.497" stroke="black"/>
<line x1="175.497" y1="1080" x2="175.497" stroke="black"/>
<line x1="204.497" y1="1080" x2="204.497" stroke="black"/>
<line x1="233.497" y1="1080" x2="233.497" stroke="black"/>
<line x1="262.497" y1="1080" x2="262.497" stroke="black"/>
<line x1="291.497" y1="1080" x2="291.497" stroke="black"/>
<line x1="320.497" y1="1080" x2="320.497" stroke="black"/>
<line x1="349.497" y1="1080" x2="349.497" stroke="black"/>
<line x1="378.497" y1="1080" x2="378.497" stroke="black"/>
<line x1="407.497" y1="1080" x2="407.497" stroke="black"/>
<line x1="436.497" y1="1080" x2="436.497" stroke="black"/>
<line x1="465.497" y1="1080" x2="465.497" stroke="black"/>
<line x1="494.497" y1="1080" x2="494.497" stroke="black"/>
<line x1="523.497" y1="1080" x2="523.497" stroke="black"/>
<line x1="552.497" y1="1080" x2="552.497" stroke="black"/>
<line x1="581.497" y1="1080" x2="581.497" stroke="black"/>
<line x1="610.497" y1="1080" x2="610.497" stroke="black"/>
<line x1="639.497" y1="1080" x2="639.497" stroke="black"/>
<line x1="668.497" y1="1080" x2="668.497" stroke="black"/>
<line x1="697.497" y1="1080" x2="697.497" stroke="black"/>
<line x1="726.497" y1="1080" x2="726.497" stroke="black"/>
<line x1="755.497" y1="1080" x2="755.497" stroke="black"/>
<line x1="784.497" y1="1080" x2="784.497" stroke="black"/>
<line x1="813.497" y1="1080" x2="813.497" stroke="black"/>
<line x1="842.497" y1="1080" x2="842.497" stroke="black"/>
<line x1="871.497" y1="1080" x2="871.497" stroke="black"/>
<line x1="900.497" y1="1080" x2="900.497" stroke="black"/>
<line x1="929.497" y1="1080" x2="929.497" stroke="black"/>
<line x1="958.497" y1="1080" x2="958.497" stroke="black"/>
<line x1="987.497" y1="1080" x2="987.497" stroke="black"/>
<line x1="1016.5" y1="1080" x2="1016.5" stroke="black"/>
<line x1="1045.5" y1="1080" x2="1045.5" stroke="black"/>
<line x1="1074.5" y1="1080" x2="1074.5" stroke="black"/>
<line x1="1103.5" y1="1080" x2="1103.5" stroke="black"/>
<line x1="1132.5" y1="1080" x2="1132.5" stroke="black"/>
<line x1="1161.5" y1="1080" x2="1161.5" stroke="black"/>
<line x1="1190.5" y1="1080" x2="1190.5" stroke="black"/>
<line x1="1219.5" y1="1080" x2="1219.5" stroke="black"/>
<line x1="1248.5" y1="1080" x2="1248.5" stroke="black"/>
<line x1="1277.5" y1="1080" x2="1277.5" stroke="black"/>
<line x1="1306.5" y1="1080" x2="1306.5" stroke="black"/>
<line x1="1335.5" y1="1080" x2="1335.5" stroke="black"/>
<line x1="1364.5" y1="1080" x2="1364.5" stroke="black"/>
<line x1="1393.5" y1="1080" x2="1393.5" stroke="black"/>
<line x1="1422.5" y1="1080" x2="1422.5" stroke="black"/>
<line x1="1451.5" y1="1080" x2="1451.5" stroke="black"/>
<line x1="1480.5" y1="1080" x2="1480.5" stroke="black"/>
<line x1="1509.5" y1="1080" x2="1509.5" stroke="black"/>
<line x1="1538.5" y1="1080" x2="1538.5" stroke="black"/>
<line x1="1567.5" y1="1080" x2="1567.5" stroke="black"/>
<line x1="1596.5" y1="1080" x2="1596.5" stroke="black"/>
<line x1="1625.5" y1="1080" x2="1625.5" stroke="black"/>
<line x1="1654.5" y1="1080" x2="1654.5" stroke="black"/>
<line x1="1683.5" y1="1080" x2="1683.5" stroke="black"/>
<line x1="1712.5" y1="1080" x2="1712.5" stroke="black"/>
<line x1="1741.5" y1="1080" x2="1741.5" stroke="black"/>
<line x1="1770.5" y1="1080" x2="1770.5" stroke="black"/>
<line x1="1799.5" y1="1080" x2="1799.5" stroke="black"/>
<line x1="1828.5" y1="1080" x2="1828.5" stroke="black"/>
<line x1="1857.5" y1="1080" x2="1857.5" stroke="black"/>
<line x1="1886.5" y1="1080" x2="1886.5" stroke="black"/>
<line x1="1915.5" y1="1080" x2="1915.5" stroke="black"/>
</g>
</svg>
